<svg xmlns="http://www.w3.org/2000/svg" viewBox="0 0 256 256" clip-path="url(#clip)" width="512" height="512">
    <defs>
        <clipPath id="clip" clipPathUnits="objectBoundingBox">
            <rect x="0" y="0" width="256" height="256"/>
        </clipPath>
    </defs>
    <rect x="0" y="0" width="256" height="256" fill="#1f1f1f"/>
    <path d="M139,17L208,136L151,276Z" fill="rgb(225, 188, 180)" fill-opacity="0.67"/>
    <path d="M130,50L176,68L144,30Z" fill="rgb(0, 0, 0)" fill-opacity="0.62"/>
    <path d="M166,243L140,239L134,286Z" fill="rgb(247, 205, 190)" fill-opacity="0.70"/>
    <path d="M76,223L161,99L67,111Z" fill="rgb(200, 127, 121)" fill-opacity="0.46"/>
    <path d="M192,93L149,52L106,79Z" fill="rgb(255, 236, 224)" fill-opacity="0.58"/>
    <path d="M192,205L194,119L160,119Z" fill="rgb(255, 255, 255)" fill-opacity="0.54"/>
    <path d="M163,89L208,128L136,93Z" fill="rgb(56, 29, 29)" fill-opacity="0.56"/>
    <path d="M105,153L132,122L121,102Z" fill="rgb(246, 208, 195)" fill-opacity="0.58"/>
    <path d="M192,106L209,135L198,164Z" fill="rgb(12, 22, 25)" fill-opacity="0.68"/>
    <path d="M187,171L146,144L197,145Z" fill="rgb(253, 223, 215)" fill-opacity="0.70"/>
    <path d="M180,217L229,279L14,134Z" fill="rgb(81, 59, 58)" fill-opacity="0.78"/>
    <path d="M200,109L164,42L188,109Z" fill="rgb(125, 124, 131)" fill-opacity="0.49"/>
    <path d="M137,196L198,167L181,214Z" fill="rgb(254, 213, 198)" fill-opacity="0.49"/>
    <path d="M69,241L168,179L142,98Z" fill="rgb(87, 48, 46)" fill-opacity="0.67"/>
    <path d="M185,120L180,110L172,113Z" fill="rgb(253, 230, 224)" fill-opacity="0.62"/>
    <path d="M119,274L152,193L165,220Z" fill="rgb(75, 46, 39)" fill-opacity="0.51"/>
    <path d="M148,19L102,16L87,44Z" fill="rgb(81, 88, 98)" fill-opacity="0.57"/>
    <path d="M138,105L78,76L150,51Z" fill="rgb(206, 114, 102)" fill-opacity="0.26"/>
    <path d="M172,132L128,128L163,143Z" fill="rgb(36, 8, 9)" fill-opacity="0.61"/>
    <path d="M138,187L149,171L163,188Z" fill="rgb(49, 28, 25)" fill-opacity="0.60"/>
    <path d="M143,247L165,219L163,251Z" fill="rgb(255, 223, 210)" fill-opacity="0.64"/>
    <path d="M152,94L172,87L181,95Z" fill="rgb(37, 24, 22)" fill-opacity="0.43"/>
    <path d="M161,114L171,121L160,88Z" fill="rgb(65, 19, 18)" fill-opacity="0.46"/>
    <path d="M124,77L186,92L161,60Z" fill="rgb(255, 253, 246)" fill-opacity="0.45"/>
    <path d="M131,11L110,21L176,53Z" fill="rgb(73, 75, 79)" fill-opacity="0.76"/>
    <path d="M148,167L178,185L163,163Z" fill="rgb(254, 187, 188)" fill-opacity="0.56"/>
    <path d="M170,166L194,125L169,120Z" fill="rgb(255, 243, 232)" fill-opacity="0.54"/>
    <path d="M151,123L122,145L173,139Z" fill="rgb(52, 28, 28)" fill-opacity="0.55"/>
    <path d="M163,155L181,176L137,153Z" fill="rgb(26, 0, 0)" fill-opacity="0.48"/>
    <path d="M109,142L98,121L136,113Z" fill="rgb(230, 194, 181)" fill-opacity="0.54"/>
    <path d="M49,97L90,210L46,161Z" fill="rgb(87, 64, 68)" fill-opacity="0.67"/>
    <path d="M129,54L149,35L171,63Z" fill="rgb(23, 20, 22)" fill-opacity="0.62"/>
    <path d="M-26,263L87,201L67,273Z" fill="rgb(0, 0, 1)" fill-opacity="0.56"/>
    <path d="M157,153L191,146L142,144Z" fill="rgb(255, 236, 230)" fill-opacity="0.44"/>
    <path d="M157,321L77,237L127,203Z" fill="rgb(111, 63, 56)" fill-opacity="0.52"/>
    <path d="M52,114L64,138L77,101Z" fill="rgb(25, 20, 23)" fill-opacity="0.69"/>
    <path d="M68,124L120,92L81,81Z" fill="rgb(93, 59, 58)" fill-opacity="0.61"/>
    <path d="M174,210L161,249L236,159Z" fill="rgb(35, 39, 41)" fill-opacity="0.52"/>
    <path d="M149,121L164,125L145,80Z" fill="rgb(255, 233, 222)" fill-opacity="0.53"/>
    <path d="M141,205L142,190L181,219Z" fill="rgb(163, 126, 114)" fill-opacity="0.59"/>
    <path d="M178,232L281,244L253,270Z" fill="rgb(104, 110, 131)" fill-opacity="0.25"/>
    <path d="M186,92L168,98L185,106Z" fill="rgb(255, 227, 218)" fill-opacity="0.44"/>
    <path d="M186,7L142,25L121,10Z" fill="rgb(31, 31, 31)" fill-opacity="0.80"/>
    <path d="M131,206L150,236L167,218Z" fill="rgb(22, 14, 13)" fill-opacity="0.43"/>
    <path d="M110,69L143,55L111,87Z" fill="rgb(137, 90, 81)" fill-opacity="0.69"/>
    <path d="M127,113L102,133L122,137Z" fill="rgb(240, 209, 199)" fill-opacity="0.46"/>
    <path d="M170,172L180,176L175,164Z" fill="rgb(18, 0, 0)" fill-opacity="0.49"/>
    <path d="M126,265L161,256L164,226Z" fill="rgb(251, 214, 200)" fill-opacity="0.42"/>
    <path d="M192,132L189,106L182,98Z" fill="rgb(210, 185, 180)" fill-opacity="0.65"/>
    <path d="M171,177L178,209L147,196Z" fill="rgb(237, 205, 193)" fill-opacity="0.58"/>
    <path d="M179,238L194,266L187,236Z" fill="rgb(0, 1, 5)" fill-opacity="0.49"/>
    <path d="M154,164L98,172L109,138Z" fill="rgb(57, 35, 34)" fill-opacity="0.44"/>
    <path d="M162,189L112,164L163,177Z" fill="rgb(58, 33, 32)" fill-opacity="0.49"/>
    <path d="M123,77L142,101L130,123Z" fill="rgb(52, 35, 34)" fill-opacity="0.52"/>
    <path d="M74,97L126,111L66,138Z" fill="rgb(85, 56, 54)" fill-opacity="0.54"/>
    <path d="M194,111L145,90L159,111Z" fill="rgb(30, 1, 0)" fill-opacity="0.30"/>
    <path d="M190,112L214,135L187,102Z" fill="rgb(40, 42, 43)" fill-opacity="0.60"/>
    <path d="M58,220L38,234L60,209Z" fill="rgb(76, 88, 102)" fill-opacity="0.48"/>
    <path d="M152,59L134,70L178,76Z" fill="rgb(255, 238, 230)" fill-opacity="0.44"/>
    <path d="M200,72L191,125L227,187Z" fill="rgb(30, 31, 31)" fill-opacity="0.52"/>
    <path d="M168,149L197,144L182,115Z" fill="rgb(255, 245, 234)" fill-opacity="0.44"/>
    <path d="M198,138L196,153L180,83Z" fill="rgb(182, 169, 166)" fill-opacity="0.56"/>
    <path d="M210,240L219,259L188,276Z" fill="rgb(3, 4, 8)" fill-opacity="0.67"/>
    <path d="M145,31L175,60L149,25Z" fill="rgb(111, 110, 115)" fill-opacity="0.50"/>
    <path d="M191,199L172,172L164,216Z" fill="rgb(219, 186, 174)" fill-opacity="0.62"/>
    <path d="M174,100L170,111L186,108Z" fill="rgb(0, 0, 0)" fill-opacity="0.37"/>
    <path d="M80,232L147,168L70,189Z" fill="rgb(85, 52, 50)" fill-opacity="0.64"/>
    <path d="M161,164L118,167L151,150Z" fill="rgb(44, 14, 18)" fill-opacity="0.61"/>
    <path d="M157,43L197,104L180,85Z" fill="rgb(64, 59, 62)" fill-opacity="0.58"/>
    <path d="M64,200L144,243L158,212Z" fill="rgb(54, 33, 31)" fill-opacity="0.58"/>
    <path d="M58,128L71,200L118,175Z" fill="rgb(105, 66, 65)" fill-opacity="0.52"/>
    <path d="M109,75L117,90L95,96Z" fill="rgb(27, 28, 31)" fill-opacity="0.40"/>
    <path d="M165,226L172,211L165,253Z" fill="rgb(7, 9, 7)" fill-opacity="0.54"/>
    <path d="M153,100L168,131L142,107Z" fill="rgb(246, 215, 207)" fill-opacity="0.61"/>
    <path d="M145,111L130,134L152,122Z" fill="rgb(138, 95, 89)" fill-opacity="0.44"/>
    <path d="M96,63L84,48L137,32Z" fill="rgb(2, 1, 5)" fill-opacity="0.46"/>
    <path d="M63,72L92,42L84,44Z" fill="rgb(90, 98, 108)" fill-opacity="0.59"/>
    <path d="M118,106L144,108L149,88Z" fill="rgb(76, 47, 44)" fill-opacity="0.46"/>
    <path d="M177,199L153,189L163,217Z" fill="rgb(255, 255, 245)" fill-opacity="0.19"/>
    <path d="M159,141L146,145L174,159Z" fill="rgb(244, 218, 212)" fill-opacity="0.50"/>
    <path d="M124,78L131,55L145,90Z" fill="rgb(219, 157, 140)" fill-opacity="0.40"/>
    <path d="M14,229L48,230L54,220Z" fill="rgb(65, 77, 88)" fill-opacity="0.51"/>
    <path d="M140,86L125,71L102,82Z" fill="rgb(136, 96, 88)" fill-opacity="0.42"/>
    <path d="M170,149L143,146L140,148Z" fill="rgb(226, 179, 174)" fill-opacity="0.49"/>
    <path d="M103,99L132,109L123,96Z" fill="rgb(26, 20, 18)" fill-opacity="0.59"/>
    <path d="M85,47L52,105L95,62Z" fill="rgb(10, 9, 12)" fill-opacity="0.60"/>
    <path d="M77,224L-32,240L99,358Z" fill="rgb(5, 5, 8)" fill-opacity="0.61"/>
    <path d="M142,104L145,102L157,155Z" fill="rgb(168, 115, 106)" fill-opacity="0.38"/>
    <path d="M122,55L86,50L113,24Z" fill="rgb(13, 12, 16)" fill-opacity="0.47"/>
    <path d="M163,91L134,68L140,85Z" fill="rgb(238, 201, 192)" fill-opacity="0.58"/>
    <path d="M166,167L177,176L160,156Z" fill="rgb(66, 19, 21)" fill-opacity="0.55"/>
    <path d="M175,95L184,99L197,92Z" fill="rgb(120, 108, 107)" fill-opacity="0.55"/>
    <path d="M94,64L108,82L132,55Z" fill="rgb(80, 54, 52)" fill-opacity="0.54"/>
    <path d="M165,127L169,143L163,145Z" fill="rgb(76, 0, 0)" fill-opacity="0.41"/>
    <path d="M57,124L45,141L50,109Z" fill="rgb(55, 81, 89)" fill-opacity="0.42"/>
    <path d="M127,60L120,83L146,56Z" fill="rgb(182, 128, 111)" fill-opacity="0.46"/>
    <path d="M143,165L157,168L148,172Z" fill="rgb(209, 112, 121)" fill-opacity="0.47"/>
    <path d="M51,152L66,136L53,132Z" fill="rgb(105, 52, 50)" fill-opacity="0.56"/>
    <path d="M143,237L133,283L78,230Z" fill="rgb(92, 63, 58)" fill-opacity="0.47"/>
    <path d="M190,136L189,110L182,87Z" fill="rgb(224, 193, 185)" fill-opacity="0.53"/>
    <path d="M191,174L184,248L207,126Z" fill="rgb(40, 46, 50)" fill-opacity="0.41"/>
    <path d="M56,82L55,133L71,123Z" fill="rgb(12, 12, 14)" fill-opacity="0.63"/>
    <path d="M119,99L88,109L95,117Z" fill="rgb(57, 38, 38)" fill-opacity="0.53"/>
    <path d="M42,124L-27,136L55,189Z" fill="rgb(31, 31, 31)" fill-opacity="0.93"/>
    <path d="M184,249L168,238L207,315Z" fill="rgb(79, 76, 84)" fill-opacity="0.46"/>
    <path d="M119,54L165,57L127,20Z" fill="rgb(24, 23, 24)" fill-opacity="0.50"/>
    <path d="M189,236L203,236L201,283Z" fill="rgb(76, 82, 90)" fill-opacity="0.65"/>
    <path d="M93,30L103,20L120,24Z" fill="rgb(113, 126, 141)" fill-opacity="0.41"/>
    <path d="M188,205L178,212L197,172Z" fill="rgb(114, 110, 112)" fill-opacity="0.51"/>
    <path d="M190,136L143,110L192,153Z" fill="rgb(255, 242, 231)" fill-opacity="0.37"/>
    <path d="M168,168L156,165L182,191Z" fill="rgb(242, 204, 200)" fill-opacity="0.51"/>
    <path d="M174,175L164,171L169,212Z" fill="rgb(233, 197, 184)" fill-opacity="0.45"/>
    <path d="M144,91L158,61L136,63Z" fill="rgb(246, 209, 199)" fill-opacity="0.39"/>
    <path d="M124,26L121,14L115,25Z" fill="rgb(111, 123, 139)" fill-opacity="0.48"/>
    <path d="M49,151L49,134L43,147Z" fill="rgb(88, 104, 113)" fill-opacity="0.37"/>
    <path d="M172,219L195,200L191,234Z" fill="rgb(31, 32, 32)" fill-opacity="0.76"/>
    <path d="M59,212L73,174L74,199Z" fill="rgb(48, 67, 78)" fill-opacity="0.48"/>
    <path d="M162,129L172,141L158,142Z" fill="rgb(62, 28, 27)" fill-opacity="0.43"/>
    <path d="M160,262L165,238L171,253Z" fill="rgb(6, 0, 0)" fill-opacity="0.52"/>
    <path d="M176,153L166,128L180,148Z" fill="rgb(232, 175, 170)" fill-opacity="0.49"/>
    <path d="M179,163L178,177L168,170Z" fill="rgb(71, 40, 33)" fill-opacity="0.50"/>
    <path d="M151,97L143,101L140,87Z" fill="rgb(118, 70, 63)" fill-opacity="0.46"/>
    <path d="M98,121L119,146L95,134Z" fill="rgb(168, 114, 105)" fill-opacity="0.44"/>
    <path d="M128,23L120,15L141,25Z" fill="rgb(149, 159, 174)" fill-opacity="0.37"/>
    <path d="M194,104L185,76L184,99Z" fill="rgb(108, 106, 109)" fill-opacity="0.49"/>
    <path d="M164,220L140,226L153,200Z" fill="rgb(35, 25, 23)" fill-opacity="0.44"/>
    <path d="M207,229L225,265L231,244Z" fill="rgb(77, 74, 82)" fill-opacity="0.36"/>
    <path d="M143,90L155,105L150,82Z" fill="rgb(187, 138, 129)" fill-opacity="0.51"/>
    <path d="M162,183L158,191L175,188Z" fill="rgb(191, 143, 127)" fill-opacity="0.45"/>
    <path d="M49,94L80,53L64,63Z" fill="rgb(92, 105, 118)" fill-opacity="0.30"/>
    <path d="M74,199L61,212L77,239Z" fill="rgb(5, 5, 6)" fill-opacity="0.68"/>
    <path d="M180,92L167,91L162,99Z" fill="rgb(72, 54, 52)" fill-opacity="0.60"/>
    <path d="M26,228L14,235L-4,232Z" fill="rgb(71, 91, 112)" fill-opacity="0.44"/>
    <path d="M169,112L180,112L184,116Z" fill="rgb(255, 238, 232)" fill-opacity="0.53"/>
    <path d="M143,147L166,133L120,138Z" fill="rgb(58, 40, 41)" fill-opacity="0.49"/>
    <path d="M84,93L141,89L118,82Z" fill="rgb(9, 15, 18)" fill-opacity="0.34"/>
    <path d="M52,125L56,76L49,96Z" fill="rgb(105, 135, 157)" fill-opacity="0.25"/>
    <path d="M152,32L134,22L162,45Z" fill="rgb(118, 120, 128)" fill-opacity="0.55"/>
    <path d="M151,237L144,227L124,265Z" fill="rgb(94, 69, 63)" fill-opacity="0.55"/>
    <path d="M52,124L20,47L48,132Z" fill="rgb(32, 32, 32)" fill-opacity="0.74"/>
    <path d="M92,72L61,73L54,119Z" fill="rgb(10, 9, 13)" fill-opacity="0.36"/>
    <path d="M256,259L230,244L235,260Z" fill="rgb(9, 4, 9)" fill-opacity="0.41"/>
    <path d="M165,236L159,230L165,225Z" fill="rgb(255, 255, 250)" fill-opacity="0.46"/>
    <path d="M29,230L44,227L5,230Z" fill="rgb(65, 76, 89)" fill-opacity="0.54"/>
    <path d="M171,272L164,236L172,225Z" fill="rgb(20, 18, 17)" fill-opacity="0.50"/>
    <path d="M59,171L99,132L52,163Z" fill="rgb(101, 64, 63)" fill-opacity="0.69"/>
    <path d="M81,101L119,68L86,65Z" fill="rgb(76, 54, 54)" fill-opacity="0.56"/>
    <path d="M154,124L162,113L171,124Z" fill="rgb(241, 208, 201)" fill-opacity="0.55"/>
    <path d="M151,56L170,68L156,40Z" fill="rgb(34, 30, 31)" fill-opacity="0.66"/>
    <path d="M106,123L127,125L117,143Z" fill="rgb(223, 189, 178)" fill-opacity="0.52"/>
</svg>